<svg width="155" height="60" viewBox="0 0 155 60" fill="none" xmlns="http://www.w3.org/2000/svg">
<path fill-rule="evenodd" clip-rule="evenodd" d="M10.9163 18.8047V59.1234H0.278877V18.8047H10.9163ZM81.3546 49.6812V59.5616H79.9602C76.7331 59.5616 74.0239 59.2827 71.8725 58.6851C69.761 58.0875 68.008 57.1313 66.6932 55.7768C65.3785 54.4222 64.4223 52.6294 63.8645 50.4381C63.3068 48.207 63.0279 45.4182 63.0279 42.1114V3.10744H73.6653V18.8047H81.3546V27.9282H73.6653V41.9919C73.6653 43.5855 73.745 44.9003 73.9044 45.8963C74.1036 46.972 74.4622 47.7688 75.0199 48.3266C75.5777 48.8843 76.4143 49.2827 77.5299 49.4421C78.4861 49.6015 79.8008 49.6812 81.3546 49.6812ZM142.231 -0.00012207V59.1632H131.594V-0.00012207H142.231ZM40.4382 18.0079C45.6972 18.0079 49.8406 19.6015 52.7888 22.7887C55.737 25.976 57.251 30.5178 57.2112 36.2549V59.1234H46.494V37.8086V37.6891C46.494 34.3824 45.6972 31.7927 44.1833 29.96C42.6295 28.1274 40.2789 27.1712 37.2111 27.1712C34.6215 27.1712 32.3506 28.1274 30.4781 30.0397C28.7251 31.8326 27.8088 34.6214 27.6892 38.4062V39.1234V59.1234H17.1315V18.8047H27.6096V23.9441V24.6214L28.1673 23.8644C29.6016 22.0318 31.3546 20.5975 33.4661 19.5616C35.5378 18.5258 37.8884 18.0079 40.4382 18.0079ZM124.582 30.7569C125.578 33.3067 126.096 36.0158 126.096 38.9242V42.709H94.4223L94.5418 43.0676C95.2191 45.4182 96.494 47.3306 98.3665 48.6851C100.239 50.0796 102.709 50.7569 105.697 50.7569C110.478 50.7569 114.303 48.1672 115.896 46.2549L123.546 52.0716C120.199 55.8963 114.622 59.9999 105.618 59.9999C102.51 59.9999 99.6016 59.4421 96.9721 58.3266C94.3426 57.2509 92.0717 55.7369 90.239 53.8644C88.4064 51.9919 86.9323 49.7608 85.8964 47.211C84.8606 44.6612 84.3426 41.9122 84.3426 39.0039C84.3426 36.0955 84.8606 33.3465 85.9761 30.7967C87.0518 28.2469 88.5657 26.0158 90.4382 24.1433C92.3108 22.2708 94.5418 20.7967 97.0916 19.6812C99.6414 18.6055 102.39 18.0477 105.299 18.0477C108.367 18.0477 111.195 18.5656 113.745 19.6413C116.295 20.717 118.486 22.1911 120.319 24.1035C122.112 26.0158 123.546 28.2469 124.582 30.7569ZM105.179 27.0915C97.8885 27.1314 94.502 32.2708 94.502 35.219L115.896 35.1792C115.896 32.231 112.47 27.0915 105.179 27.0915ZM153.506 52.8286C153.865 53.1871 154.143 53.5855 154.343 54.0636C154.542 54.5417 154.661 55.0596 154.661 55.5776C154.661 56.0955 154.542 56.6134 154.343 57.0915C154.143 57.5696 153.865 57.968 153.506 58.3266C153.147 58.6851 152.749 58.964 152.271 59.1632C151.793 59.3624 151.315 59.4819 150.757 59.4819C150.239 59.4819 149.721 59.3624 149.243 59.1632C148.765 58.964 148.367 58.6851 148.008 58.3266C147.649 57.968 147.371 57.5696 147.171 57.0915C146.972 56.6134 146.853 56.1353 146.853 55.5776C146.853 55.0596 146.972 54.5417 147.171 54.0636C147.371 53.5855 147.649 53.1871 148.008 52.8286C148.367 52.47 148.765 52.1911 149.243 51.9919C149.721 51.7927 150.199 51.6732 150.757 51.6732C151.275 51.6732 151.793 51.7927 152.271 51.9919C152.749 52.1911 153.147 52.47 153.506 52.8286ZM153.028 57.8883C153.307 57.6094 153.546 57.2509 153.705 56.8525C153.865 56.4541 153.944 56.0557 153.944 55.5776C153.944 55.0995 153.865 54.7011 153.705 54.3027C153.546 53.9043 153.307 53.5457 153.028 53.2668C152.749 52.9879 152.39 52.7489 151.992 52.5895C151.594 52.4302 151.155 52.3505 150.717 52.3505C150.239 52.3505 149.841 52.4302 149.442 52.5895C149.044 52.7489 148.685 52.9879 148.406 53.2668C148.127 53.5457 147.888 53.9043 147.729 54.3027C147.57 54.7011 147.49 55.1393 147.49 55.5776C147.49 56.0557 147.57 56.4541 147.729 56.8525C147.888 57.2509 148.127 57.6094 148.406 57.8883C148.685 58.1672 149.044 58.4062 149.442 58.5656C149.841 58.725 150.279 58.8047 150.717 58.8047C151.195 58.8047 151.594 58.725 151.992 58.5656C152.39 58.4062 152.749 58.1672 153.028 57.8883ZM152.231 55.5776C152.032 55.7768 151.793 55.8963 151.474 55.9361L152.629 57.8485H151.753L150.637 56.0158H150.04V57.8485H149.203V53.3465H150.956C151.474 53.3465 151.912 53.466 152.151 53.705C152.43 53.9441 152.55 54.2628 152.55 54.7011C152.55 55.0995 152.43 55.3784 152.231 55.5776ZM150.637 55.2589H151.036C151.155 55.2589 151.275 55.219 151.394 55.1792C151.474 55.1393 151.554 55.0596 151.633 54.98C151.673 54.9003 151.713 54.7807 151.713 54.6214C151.713 54.462 151.713 54.3425 151.633 54.2628C151.594 54.1832 151.514 54.1035 151.394 54.0636C151.275 54.0238 151.155 53.9839 151.036 53.9839H150.637H150.04V55.2589H150.637ZM0 0.836449H11.1952V12.0317H0V0.836449Z" fill="white"/>
</svg>
