<svg width="1440" height="278" viewBox="0 0 1440 278" fill="none" xmlns="http://www.w3.org/2000/svg">
<path d="M1532 224.5C1501.9 207.804 1413.66 172.962 1301.56 167.162C1161.44 159.912 1184.43 51.8268 1054.16 50.5087C923.889 49.1905 958.92 198.138 805.114 200.774C651.307 203.41 634.339 128.937 501.879 133.22C369.42 137.504 329.463 224.5 175.656 224.5C52.611 224.5 -54.0501 202.971 -92 192.206" stroke="#333333" stroke-width="100"/>
<path d="M1532 227.5C1501.9 210.804 1413.66 175.962 1301.56 170.162C1161.44 162.912 1184.43 54.8268 1054.16 53.5087C923.889 52.1905 958.92 201.138 805.114 203.774C651.307 206.41 634.339 131.937 501.879 136.22C369.42 140.504 329.463 227.5 175.656 227.5C52.611 227.5 -54.0501 205.971 -92 195.206" stroke="black" stroke-width="100"/>
<path d="M1532 227.5C1501.9 210.804 1413.66 175.962 1301.56 170.162C1161.44 162.912 1184.43 54.8268 1054.16 53.5087C923.889 52.1905 958.92 201.138 805.114 203.774C651.307 206.41 634.339 131.937 501.879 136.22C369.42 140.504 329.463 227.5 175.656 227.5C52.611 227.5 -54.0501 205.971 -92 195.206" stroke="#FFD465" stroke-width="3" stroke-dasharray="15 20"/>
</svg>
