<svg width="1440" height="456" viewBox="0 0 1440 456" fill="none" xmlns="http://www.w3.org/2000/svg">
<path d="M200.5 128.5L-20 92.5L-50 455.5L1499.5 443L1478.5 52.5L1198.5 41.5L943.5 152L616.5 92.5L455.5 205L355.5 222L200.5 128.5Z" fill="black"/>
<path d="M-92 53C-61.8955 69.6961 26.338 104.538 138.436 110.338C278.559 117.588 255.57 225.673 385.84 226.991C516.111 228.309 481.08 79.3623 634.886 76.7261C788.693 74.0899 805.661 148.563 938.121 144.28C1070.58 139.996 1110.54 53 1264.34 53C1387.39 53 1494.05 74.5292 1532 85.2938" stroke="#333333" stroke-width="100"/>
<path d="M-92 50C-61.8955 66.6961 26.338 101.538 138.436 107.338C278.559 114.588 255.57 222.673 385.84 223.991C516.111 225.309 481.08 76.3623 634.886 73.7261C788.693 71.0899 805.661 145.563 938.121 141.28C1070.58 136.996 1110.54 50 1264.34 50C1387.39 50 1494.05 71.5292 1532 82.2938" stroke="black" stroke-width="100"/>
<path d="M-92 50C-61.8955 66.6961 26.338 101.538 138.436 107.338C278.559 114.588 255.57 222.673 385.84 223.991C516.111 225.309 481.08 76.3623 634.886 73.7261C788.693 71.0899 805.661 145.563 938.121 141.28C1070.58 136.996 1110.54 50 1264.34 50C1387.39 50 1494.05 71.5292 1532 82.2938" stroke="#FFD465" stroke-width="3" stroke-dasharray="15 20"/>
</svg>
